<svg width="1084" height="542" viewBox="0 0 1084 542" fill="none" xmlns="http://www.w3.org/2000/svg">
<rect x="542" width="542" height="542" fill="white"/>
<rect width="542" height="542" fill="#2C2C54"/>
<path d="M286.073 337.6C277.807 337.6 273.673 333.333 273.673 324.8V249.2C273.673 240.8 277.74 236.6 285.873 236.6C294.007 236.6 298.073 240.8 298.073 249.2V253.2C301.007 247.867 305.073 243.733 310.273 240.8C315.473 237.733 321.473 236.2 328.273 236.2C342.94 236.2 352.54 242.6 357.073 255.4C360.14 249.4 364.54 244.733 370.273 241.4C376.007 237.933 382.54 236.2 389.873 236.2C411.873 236.2 422.873 249.6 422.873 276.4V324.8C422.873 333.333 418.673 337.6 410.273 337.6C402.007 337.6 397.873 333.333 397.873 324.8V277.4C397.873 269.933 396.607 264.467 394.073 261C391.673 257.533 387.54 255.8 381.673 255.8C375.14 255.8 370.007 258.133 366.273 262.8C362.54 267.333 360.673 273.667 360.673 281.8V324.8C360.673 333.333 356.54 337.6 348.273 337.6C339.873 337.6 335.673 333.333 335.673 324.8V277.4C335.673 269.933 334.407 264.467 331.873 261C329.473 257.533 325.407 255.8 319.673 255.8C313.14 255.8 308.007 258.133 304.273 262.8C300.54 267.333 298.673 273.667 298.673 281.8V324.8C298.673 333.333 294.473 337.6 286.073 337.6ZM496.864 338C485.797 338 476.264 335.933 468.264 331.8C460.264 327.667 454.064 321.8 449.664 314.2C445.397 306.6 443.264 297.6 443.264 287.2C443.264 277.067 445.331 268.2 449.464 260.6C453.731 253 459.531 247.067 466.864 242.8C474.331 238.4 482.797 236.2 492.264 236.2C506.131 236.2 517.064 240.6 525.064 249.4C533.197 258.2 537.264 270.2 537.264 285.4C537.264 290.333 534.064 292.8 527.664 292.8H467.264C469.131 310.267 479.131 319 497.264 319C500.731 319 504.597 318.6 508.864 317.8C513.264 316.867 517.397 315.333 521.264 313.2C524.731 311.2 527.664 310.6 530.064 311.4C532.464 312.067 534.131 313.467 535.064 315.6C536.131 317.733 536.264 320.133 535.464 322.8C534.797 325.333 532.931 327.533 529.864 329.4C525.197 332.333 519.797 334.533 513.664 336C507.664 337.333 502.064 338 496.864 338ZM493.264 253.2C485.931 253.2 479.997 255.467 475.464 260C470.931 264.533 468.197 270.667 467.264 278.4H516.464C515.931 270.267 513.664 264.067 509.664 259.8C505.797 255.4 500.331 253.2 493.264 253.2Z" fill="white"/>
<path d="M596.663 337.6C589.996 337.6 585.063 334.067 581.863 327L550.063 253.2C548.196 248.8 548.129 244.933 549.863 241.6C551.729 238.267 555.396 236.6 560.863 236.6C563.929 236.6 566.396 237.333 568.263 238.8C570.129 240.133 571.796 242.733 573.263 246.6L597.263 306.6L622.063 246.4C623.529 242.667 625.196 240.133 627.063 238.8C629.063 237.333 631.729 236.6 635.063 236.6C639.329 236.6 642.329 238.267 644.062 241.6C645.796 244.933 645.729 248.733 643.863 253L611.463 327C608.529 334.067 603.596 337.6 596.663 337.6ZM708.778 338C697.711 338 688.178 335.933 680.178 331.8C672.178 327.667 665.978 321.8 661.578 314.2C657.311 306.6 655.178 297.6 655.178 287.2C655.178 277.067 657.245 268.2 661.378 260.6C665.645 253 671.445 247.067 678.778 242.8C686.245 238.4 694.711 236.2 704.178 236.2C718.045 236.2 728.978 240.6 736.978 249.4C745.111 258.2 749.178 270.2 749.178 285.4C749.178 290.333 745.978 292.8 739.578 292.8H679.178C681.045 310.267 691.045 319 709.178 319C712.645 319 716.511 318.6 720.778 317.8C725.178 316.867 729.311 315.333 733.178 313.2C736.645 311.2 739.578 310.6 741.978 311.4C744.378 312.067 746.045 313.467 746.978 315.6C748.045 317.733 748.178 320.133 747.378 322.8C746.711 325.333 744.845 327.533 741.778 329.4C737.111 332.333 731.711 334.533 725.578 336C719.578 337.333 713.978 338 708.778 338ZM705.178 253.2C697.845 253.2 691.911 255.467 687.378 260C682.845 264.533 680.111 270.667 679.178 278.4H728.378C727.845 270.267 725.578 264.067 721.578 259.8C717.711 255.4 712.245 253.2 705.178 253.2ZM781.377 337.6C773.11 337.6 768.977 333.333 768.977 324.8V249.2C768.977 240.8 773.043 236.6 781.177 236.6C789.31 236.6 793.377 240.8 793.377 249.2V253.4C796.71 247.8 801.177 243.533 806.777 240.6C812.51 237.667 818.91 236.2 825.977 236.2C849.043 236.2 860.577 249.6 860.577 276.4V324.8C860.577 333.333 856.443 337.6 848.177 337.6C839.777 337.6 835.577 333.333 835.577 324.8V277.6C835.577 270 834.11 264.467 831.177 261C828.377 257.533 823.977 255.8 817.977 255.8C810.643 255.8 804.777 258.133 800.377 262.8C796.11 267.333 793.977 273.4 793.977 281V324.8C793.977 333.333 789.777 337.6 781.377 337.6ZM930.769 338C904.902 338 891.969 325.2 891.969 299.6V257H881.569C874.902 257 871.569 253.867 871.569 247.6C871.569 241.333 874.902 238.2 881.569 238.2H891.969V220C891.969 211.6 896.169 207.4 904.569 207.4C912.835 207.4 916.969 211.6 916.969 220V238.2H938.169C944.835 238.2 948.169 241.333 948.169 247.6C948.169 253.867 944.835 257 938.169 257H916.969V298.2C916.969 304.6 918.369 309.4 921.169 312.6C923.969 315.8 928.502 317.4 934.769 317.4C937.035 317.4 939.035 317.2 940.769 316.8C942.502 316.4 944.035 316.133 945.369 316C946.969 315.867 948.302 316.4 949.369 317.6C950.435 318.667 950.969 320.933 950.969 324.4C950.969 327.067 950.502 329.467 949.569 331.6C948.769 333.6 947.235 335 944.969 335.8C943.235 336.333 940.969 336.8 938.169 337.2C935.369 337.733 932.902 338 930.769 338Z" fill="#2C2C54"/>
<circle cx="1023" cy="300" r="36" fill="#2C2C54"/>
<circle cx="193" cy="300" r="36" fill="white"/>
</svg>
