<?xml version="1.0" standalone="no"?>
<!DOCTYPE svg PUBLIC "-//W3C//DTD SVG 20010904//EN"
 "http://www.w3.org/TR/2001/REC-SVG-20010904/DTD/svg10.dtd">
<svg version="1.0" xmlns="http://www.w3.org/2000/svg"
 width="542.000000pt" height="542.000000pt" viewBox="0 0 542.000000 542.000000"
 preserveAspectRatio="xMidYMid meet">
<metadata>
Created by potrace 1.14, written by Peter Selinger 2001-2017
</metadata>
<g transform="translate(0.000000,542.000000) scale(0.100000,-0.100000)"
fill="#000000" stroke="none">
<path d="M0 2710 l0 -2710 2710 0 2710 0 0 2710 0 2710 -2710 0 -2710 0 0
-2710z m3199 339 c28 -6 69 -23 92 -38 36 -25 88 -88 102 -124 3 -7 12 -2 23
13 36 50 90 94 154 124 59 28 74 31 160 31 84 0 102 -4 152 -28 65 -32 101
-70 134 -142 35 -76 44 -164 44 -462 0 -338 -5 -356 -103 -378 -38 -8 -100 10
-123 36 -18 20 -19 44 -24 338 -5 304 -6 318 -28 363 -56 114 -232 104 -307
-17 l-30 -48 -5 -298 c-5 -282 -6 -299 -26 -326 -30 -41 -92 -59 -146 -41 -23
7 -51 26 -62 41 -20 27 -21 44 -26 350 -5 338 -6 341 -54 387 -21 19 -40 25
-89 28 -82 5 -139 -24 -182 -93 l-30 -48 -5 -298 c-5 -282 -6 -299 -26 -326
-12 -16 -39 -34 -64 -42 -38 -12 -49 -12 -83 0 -22 8 -50 27 -61 42 -20 27
-21 41 -24 410 -4 445 -1 479 38 519 24 23 37 28 80 28 88 0 130 -39 130 -122
l0 -28 37 41 c89 99 216 137 352 108z m1670 -4 c202 -48 330 -224 331 -456 0
-97 13 -94 -372 -97 l-329 -3 6 -32 c12 -55 45 -124 73 -150 15 -14 50 -36 77
-49 43 -20 66 -23 155 -22 92 0 113 4 170 28 36 15 79 32 97 38 65 22 123 -32
108 -100 -25 -114 -316 -194 -537 -148 -255 55 -405 265 -385 541 10 142 59
248 153 334 124 113 287 155 453 116z m-2920 -284 c146 -45 251 -188 251 -341
0 -193 -167 -360 -360 -360 -153 0 -296 105 -341 251 -87 280 170 537 450 450z"/>
<path d="M4695 2881 c-96 -25 -163 -100 -189 -213 l-6 -28 245 0 245 0 0 25
c0 69 -63 171 -127 204 -29 15 -130 22 -168 12z"/>
</g>
</svg>
